<svg width="389" height="105" viewBox="0 0 389 105" fill="none" xmlns="http://www.w3.org/2000/svg">
<path d="M27.8769 14.7639C28.0199 14.9227 26.8733 17.5419 26.7265 17.966C26.3205 19.1346 25.9935 20.3192 25.6845 21.5178C12.0427 27.119 4.24731 41.3452 5.88181 55.9475C7.60295 71.3194 21.056 84.7389 36.9258 84.4318C37.1429 84.4283 37.3656 84.2662 37.498 84.425C37.4892 84.573 37.6391 84.8655 37.6396 84.9543V90.0266L37.6377 90.0227C37.5953 90.1727 37.3566 90.2474 37.2119 90.2668C36.7529 90.3303 35.2725 90.2051 34.7197 90.1662C9.46569 88.3886 -6.29854 61.7927 2.42185 38.3498C6.62671 27.0433 16.1627 17.9291 27.8769 14.7639ZM38.8095 13.9221C38.9313 13.7932 39.6572 13.8829 39.8867 13.9006C47.8143 14.5079 55.6182 18.4338 61.3076 23.8176L61.3066 23.8195C80.4545 41.9454 76.1413 74.0468 52.8203 86.259C51.9764 86.7003 50.1458 87.6891 49.3144 87.9221C49.1203 87.9768 48.8613 88.0315 48.8525 87.7492C48.8402 87.3485 49.0142 86.7125 49.0283 86.2941C49.0795 84.8133 48.9899 83.3201 48.9775 81.841C50.6033 80.9637 52.1285 80.0966 53.6484 79.0481C66.3866 70.2623 71.2621 53.2894 65.1455 38.9748C60.3351 27.7177 49.2708 19.4813 36.7763 19.6418L36.7832 19.3127L38.8095 13.9221Z" fill="#01395D"/>
<path d="M42.4756 97.8172C42.5706 97.953 42.5284 98.1394 42.4297 98.2576C41.7801 98.7448 41.2048 99.3455 40.541 99.8133C39.971 100.216 38.0033 101.486 37.4414 101.689C37.2795 101.747 37.1402 101.762 36.9697 101.743C37.7957 99.8899 38.7936 98.0954 39.2666 96.0994L42.4756 97.8172ZM36.9697 101.745L36.9678 101.743H36.9697V101.745ZM45.8574 91.6648C45.7177 92.1244 44.4671 95.3518 44.2744 95.4197C44.1456 95.4638 43.9814 95.4314 43.8525 95.3855C42.5657 94.653 41.2555 93.8628 39.8486 93.4109L40.2207 89.0183L45.8574 91.6648ZM46.5098 85.4051H46.5117C46.9001 85.7422 46.2422 88.6955 46.3428 89.3504C46.311 89.5393 46.1604 89.7296 45.9609 89.6502L40.2666 86.9139L39.9326 82.4168L46.5098 85.4051ZM46.3037 78.199L46.6318 82.6072C46.4881 82.7442 45.3113 82.0301 45.0713 81.9207C43.2919 81.0998 41.4718 80.3667 39.6924 79.5476C39.5901 79.4488 39.5093 79.3303 39.4775 79.1892C39.3346 78.5767 39.2783 77.7947 39.1406 77.1346C39.0665 76.785 38.6251 75.433 38.7363 75.2371L46.3037 78.199ZM36.2051 67.1062C36.3565 66.9685 39.5441 68.3432 40.0088 68.5164C41.5633 69.0952 43.141 69.6211 44.6973 70.1892L45.9473 74.9285C46.0054 75.1279 45.8606 75.287 45.6523 75.2234C43.135 74.1025 40.6388 72.919 38.0244 72.031L36.2051 67.1062ZM32.9053 58.8748C36.0085 60.3469 39.3571 61.2241 42.5186 62.5603L44.1426 67.6248L43.832 67.7576C41.0464 66.4513 38.1178 65.4824 35.251 64.3738L32.8008 59.1658L32.9053 58.8748ZM30.4258 51.4178C30.6439 51.3583 33.5963 52.6113 34.1025 52.7947C35.9384 53.462 37.8289 54.0115 39.6436 54.7176L41.4707 59.3016C41.7654 60.2652 41.0208 59.592 40.6553 59.4471C37.8114 58.3244 34.9253 57.3068 32.0391 56.2918L31.7002 55.867L30.2842 51.6336C30.2436 51.5453 30.3552 51.4389 30.4258 51.4178ZM28.4043 44.0428C28.5242 43.879 28.5859 43.9864 28.7129 44.0252C29.8674 44.38 31.0412 44.9242 32.1904 45.3338C33.6819 45.8633 35.1841 46.3624 36.6826 46.8689L38.2627 51.0301L38.3076 51.6023L29.6025 48.3006C29.2496 48.0499 29.3711 47.7178 29.2705 47.3894C28.9704 46.4169 28.6267 45.4212 28.4043 44.4275C28.3743 44.2952 28.3002 44.1733 28.4043 44.0428ZM27.1143 35.7176C27.2483 35.7 27.3703 35.7255 27.499 35.7625C28.394 36.0256 29.6066 36.6729 30.5332 37.033C31.8288 37.5361 33.1332 38.0131 34.4395 38.4861C34.6195 38.6467 35.1524 41.5037 35.292 42.034C35.3732 42.3393 35.9752 43.8778 35.8203 44.0428L27.8057 40.8621L27.1143 35.7176ZM27.2432 28.4568L33.4287 31.2693C33.7482 32.7749 33.7165 34.3529 34.0977 35.8621C34.0871 35.9626 33.7775 35.9157 33.6904 35.8875C33.2191 35.7427 32.3868 35.2484 31.8643 35.033C30.2474 34.3623 28.5743 33.7704 27.0156 32.992V28.5896H27.0176C27.03 28.5437 27.1655 28.4165 27.2432 28.4568ZM28.1279 22.7127L33.4355 25.0418C33.6879 25.3931 33.4336 26.0919 33.4248 26.4803C33.4142 26.9111 33.5153 29.322 33.3389 29.4549L27.2539 26.7185C27.1992 26.5914 27.5781 25.0324 27.6416 24.7146C27.7105 24.3665 27.872 22.7682 28.1279 22.7117V22.7127ZM34.2695 19.4724L34.2676 19.4734C34.3345 19.5369 34.3589 19.6728 34.3555 19.7664C34.3325 20.2642 34.0326 21.165 33.9355 21.7264C33.8897 21.9875 33.8208 23.2427 33.6533 23.283L28.4697 21.1121L29.8467 17.4402L34.2695 19.4724ZM35.7969 13.4451C35.8798 13.5139 35.915 13.7186 35.8975 13.8299C35.8374 14.2218 35.4156 15.1312 35.2744 15.6043C35.0908 16.2186 34.9624 17.0187 34.7646 17.5818C34.7312 17.6771 34.7446 17.7811 34.6123 17.8182L30.4746 15.8494L32.627 11.993L35.7969 13.4451ZM36.4424 7.00077C36.8481 6.97092 36.8428 7.2161 37.0723 7.33964C37.332 7.47913 38.1985 7.7546 38.2197 8.01932C38.2298 8.18367 37.0035 10.4891 36.8271 10.9353C36.7619 11.0978 36.6153 11.7624 36.5781 11.7879C36.5023 11.8408 36.3011 11.7808 36.2021 11.7508L33.6191 10.5027C33.9157 10.0667 36.2182 7.01842 36.4424 7.00077ZM41.4619 2.65409C41.5483 2.59059 41.7567 2.42315 41.8486 2.51444C41.9139 2.57975 41.7887 2.8361 41.7393 2.93143C41.388 3.61283 40.2349 4.75311 39.707 5.491C39.5271 5.74163 38.9353 6.79532 38.7881 6.87479C38.6751 6.93481 37.46 6.35041 37.3965 6.24979C37.3331 6.1493 37.3224 6.05204 37.3965 5.95682C38.7469 4.86237 40.0532 3.67617 41.4619 2.65409Z" fill="#353533"/>
<path d="M376.535 58.4172C373.968 58.4172 371.709 57.915 369.756 56.9106C367.831 55.9062 366.338 54.5392 365.278 52.8094C364.218 51.0518 363.688 49.057 363.688 46.825C363.688 44.5652 364.204 42.5704 365.236 40.8407C366.296 39.083 367.733 37.7159 369.546 36.7395C371.36 35.7351 373.41 35.2329 375.698 35.2329C377.902 35.2329 379.883 35.7072 381.641 36.6558C383.426 37.5764 384.835 38.9156 385.867 40.6733C386.9 42.403 387.416 44.4815 387.416 46.9087C387.416 47.1598 387.402 47.4528 387.374 47.7876C387.346 48.0945 387.318 48.3874 387.29 48.6664H369.002V44.8581H383.859L381.348 45.9881C381.348 44.8163 381.111 43.798 380.636 42.9331C380.162 42.0682 379.506 41.3986 378.669 40.9244C377.832 40.4222 376.856 40.1711 375.74 40.1711C374.624 40.1711 373.634 40.4222 372.769 40.9244C371.932 41.3986 371.276 42.0822 370.802 42.9749C370.328 43.8398 370.09 44.8721 370.09 46.0718V47.0761C370.09 48.3037 370.355 49.3918 370.886 50.3403C371.443 51.261 372.211 51.9724 373.187 52.4746C374.192 52.9489 375.363 53.1861 376.702 53.1861C377.902 53.1861 378.948 53.0047 379.841 52.642C380.762 52.2793 381.599 51.7353 382.352 51.0099L385.826 54.7763C384.793 55.9481 383.496 56.8548 381.934 57.4965C380.371 58.1103 378.572 58.4172 376.535 58.4172Z" fill="#01395D"/>
<path d="M347.73 58.4169C345.61 58.4169 343.699 57.9426 341.997 56.994C340.295 56.0176 338.942 54.6645 337.937 52.9347C336.961 51.2049 336.473 49.1683 336.473 46.8248C336.473 44.4533 336.961 42.4027 337.937 40.673C338.942 38.9432 340.295 37.6041 341.997 36.6555C343.699 35.7069 345.61 35.2326 347.73 35.2326C349.627 35.2326 351.287 35.6511 352.71 36.4881C354.133 37.3251 355.235 38.5945 356.016 40.2964C356.797 41.9982 357.188 44.1743 357.188 46.8248C357.188 49.4473 356.811 51.6234 356.058 53.3532C355.305 55.055 354.217 56.3245 352.794 57.1614C351.399 57.9984 349.711 58.4169 347.73 58.4169ZM348.86 53.0602C349.92 53.0602 350.883 52.8092 351.747 52.307C352.612 51.8048 353.296 51.0933 353.798 50.1727C354.328 49.2241 354.593 48.1081 354.593 46.8248C354.593 45.5135 354.328 44.3975 353.798 43.4769C353.296 42.5562 352.612 41.8448 351.747 41.3426C350.883 40.8404 349.92 40.5893 348.86 40.5893C347.772 40.5893 346.795 40.8404 345.931 41.3426C345.066 41.8448 344.368 42.5562 343.838 43.4769C343.336 44.3975 343.085 45.5135 343.085 46.8248C343.085 48.1081 343.336 49.2241 343.838 50.1727C344.368 51.0933 345.066 51.8048 345.931 52.307C346.795 52.8092 347.772 53.0602 348.86 53.0602ZM354.761 58.0821V53.4787L354.886 46.7829L354.468 40.129V27.0303H360.996V58.0821H354.761Z" fill="#01395D"/>
<path d="M324.321 35.2329C326.107 35.2329 327.697 35.5956 329.092 36.321C330.515 37.0185 331.631 38.1065 332.44 39.5852C333.249 41.0359 333.654 42.9052 333.654 45.1929V58.0824H327.125V46.1973C327.125 44.3839 326.721 43.0447 325.912 42.1798C325.13 41.3149 324.014 40.8825 322.564 40.8825C321.531 40.8825 320.597 41.1057 319.76 41.5521C318.951 41.9706 318.309 42.6262 317.835 43.519C317.388 44.4118 317.165 45.5556 317.165 46.9506V58.0824H310.637V35.5677H316.872V41.8032L315.7 39.92C316.51 38.4134 317.667 37.2556 319.174 36.4465C320.68 35.6374 322.396 35.2329 324.321 35.2329Z" fill="#01395D"/>
<path d="M297.086 58.4172C294.519 58.4172 292.259 57.915 290.306 56.9106C288.381 55.9062 286.889 54.5392 285.829 52.8094C284.768 51.0518 284.238 49.057 284.238 46.825C284.238 44.5652 284.754 42.5704 285.787 40.8407C286.847 39.083 288.284 37.7159 290.097 36.7395C291.911 35.7351 293.961 35.2329 296.249 35.2329C298.453 35.2329 300.434 35.7072 302.191 36.6558C303.977 37.5764 305.386 38.9156 306.418 40.6733C307.45 42.403 307.967 44.4815 307.967 46.9087C307.967 47.1598 307.953 47.4528 307.925 47.7876C307.897 48.0945 307.869 48.3874 307.841 48.6664H289.553V44.8581H304.409L301.898 45.9881C301.898 44.8163 301.661 43.798 301.187 42.9331C300.713 42.0682 300.057 41.3986 299.22 40.9244C298.383 40.4222 297.407 40.1711 296.291 40.1711C295.175 40.1711 294.184 40.4222 293.319 40.9244C292.483 41.3986 291.827 42.0822 291.353 42.9749C290.878 43.8398 290.641 44.8721 290.641 46.0718V47.0761C290.641 48.3037 290.906 49.3918 291.436 50.3403C291.994 51.261 292.762 51.9724 293.738 52.4746C294.742 52.9489 295.914 53.1861 297.253 53.1861C298.453 53.1861 299.499 53.0047 300.392 52.642C301.313 52.2793 302.15 51.7353 302.903 51.0099L306.376 54.7763C305.344 55.9481 304.047 56.8548 302.484 57.4965C300.922 58.1103 299.123 58.4172 297.086 58.4172Z" fill="#01395D"/>
<path d="M263.598 58.0823V54.1485L276.906 38.4133L278.036 40.5895H263.891V35.5676H283.308V39.5014L270.001 55.2366L268.829 53.0604H283.685V58.0823H263.598Z" fill="#01395D"/>
<path d="M251.801 58.4172C249.234 58.4172 246.974 57.915 245.021 56.9106C243.096 55.9062 241.604 54.5392 240.543 52.8094C239.483 51.0518 238.953 49.057 238.953 46.825C238.953 44.5652 239.469 42.5704 240.502 40.8407C241.562 39.083 242.999 37.7159 244.812 36.7395C246.625 35.7351 248.676 35.2329 250.964 35.2329C253.168 35.2329 255.149 35.7072 256.906 36.6558C258.692 37.5764 260.101 38.9156 261.133 40.6733C262.165 42.403 262.681 44.4815 262.681 46.9087C262.681 47.1598 262.667 47.4528 262.64 47.7876C262.612 48.0945 262.584 48.3874 262.556 48.6664H244.268V44.8581H259.124L256.613 45.9881C256.613 44.8163 256.376 43.798 255.902 42.9331C255.428 42.0682 254.772 41.3986 253.935 40.9244C253.098 40.4222 252.122 40.1711 251.006 40.1711C249.89 40.1711 248.899 40.4222 248.034 40.9244C247.197 41.3986 246.542 42.0822 246.067 42.9749C245.593 43.8398 245.356 44.8721 245.356 46.0718V47.0761C245.356 48.3037 245.621 49.3918 246.151 50.3403C246.709 51.261 247.476 51.9724 248.453 52.4746C249.457 52.9489 250.629 53.1861 251.968 53.1861C253.168 53.1861 254.214 53.0047 255.107 52.642C256.027 52.2793 256.864 51.7353 257.618 51.0099L261.091 54.7763C260.059 55.9481 258.762 56.8548 257.199 57.4965C255.637 58.1103 253.837 58.4172 251.801 58.4172Z" fill="#01395D"/>
<path d="M211.988 58.0823V28.7881H224.668C227.291 28.7881 229.551 29.2205 231.448 30.0854C233.345 30.9224 234.81 32.136 235.842 33.7262C236.874 35.3165 237.391 37.2137 237.391 39.4177C237.391 41.5938 236.874 43.477 235.842 45.0673C234.81 46.6296 233.345 47.8293 231.448 48.6663C229.551 49.5033 227.291 49.9217 224.668 49.9217H215.755L218.768 46.9505V58.0823H211.988ZM230.611 58.0823L223.287 47.4527H230.527L237.935 58.0823H230.611ZM218.768 47.7038L215.755 44.5232H224.292C226.384 44.5232 227.947 44.0769 228.979 43.1841C230.011 42.2634 230.527 41.0079 230.527 39.4177C230.527 37.7995 230.011 36.5441 228.979 35.6513C227.947 34.7585 226.384 34.3121 224.292 34.3121H215.755L218.768 31.0898V47.7038Z" fill="#01395D"/>
<path d="M191.005 58.0824V53.6882L190.587 52.7257V44.8581C190.587 43.4632 190.154 42.3751 189.289 41.5939C188.453 40.8128 187.155 40.4222 185.398 40.4222C184.198 40.4222 183.012 40.6175 181.84 41.008C180.697 41.3707 179.72 41.8729 178.911 42.5146L176.567 37.9531C177.795 37.0882 179.274 36.4186 181.003 35.9443C182.733 35.4701 184.491 35.2329 186.276 35.2329C189.708 35.2329 192.372 36.042 194.269 37.6601C196.167 39.2783 197.115 41.8032 197.115 45.2348V58.0824H191.005ZM184.142 58.4172C182.384 58.4172 180.878 58.1242 179.622 57.5383C178.367 56.9246 177.404 56.1015 176.735 55.0693C176.065 54.037 175.73 52.8792 175.73 51.5958C175.73 50.2566 176.051 49.0849 176.693 48.0805C177.363 47.0761 178.409 46.295 179.832 45.737C181.255 45.1511 183.11 44.8581 185.398 44.8581H191.382V48.6664H186.109C184.575 48.6664 183.514 48.9175 182.928 49.4197C182.37 49.9218 182.091 50.5496 182.091 51.3029C182.091 52.1398 182.412 52.8094 183.054 53.3116C183.724 53.7859 184.63 54.023 185.774 54.023C186.862 54.023 187.839 53.7719 188.704 53.2698C189.568 52.7397 190.196 51.9724 190.587 50.9681L191.591 53.9812C191.117 55.4319 190.252 56.534 188.997 57.2872C187.741 58.0405 186.123 58.4172 184.142 58.4172Z" fill="#01395D"/>
<path d="M166.281 58.0821V27.0303H172.81V58.0821H166.281Z" fill="#01395D"/>
<path d="M148.723 58.4171C146.854 58.4171 145.18 58.0544 143.701 57.329C142.25 56.6036 141.12 55.5016 140.311 54.023C139.502 52.5164 139.098 50.6053 139.098 48.2897V35.5676H145.626V47.3271C145.626 49.1964 146.017 50.5774 146.798 51.4702C147.607 52.3351 148.737 52.7675 150.188 52.7675C151.192 52.7675 152.085 52.5583 152.866 52.1398C153.647 51.6934 154.261 51.0238 154.707 50.131C155.154 49.2103 155.377 48.0665 155.377 46.6994V35.5676H161.905V58.0823H155.712V51.8887L156.842 53.6882C156.088 55.2505 154.972 56.4362 153.494 57.2453C152.043 58.0265 150.453 58.4171 148.723 58.4171Z" fill="#01395D"/>
<path d="M128.88 58.0824V53.6882L128.462 52.7257V44.8581C128.462 43.4632 128.029 42.3751 127.164 41.5939C126.328 40.8128 125.03 40.4222 123.273 40.4222C122.073 40.4222 120.887 40.6175 119.715 41.008C118.572 41.3707 117.595 41.8729 116.786 42.5146L114.442 37.9531C115.67 37.0882 117.149 36.4186 118.878 35.9443C120.608 35.4701 122.366 35.2329 124.151 35.2329C127.583 35.2329 130.247 36.042 132.144 37.6601C134.042 39.2783 134.99 41.8032 134.99 45.2348V58.0824H128.88ZM122.017 58.4172C120.259 58.4172 118.753 58.1242 117.497 57.5383C116.242 56.9246 115.279 56.1015 114.61 55.0693C113.94 54.037 113.605 52.8792 113.605 51.5958C113.605 50.2566 113.926 49.0849 114.568 48.0805C115.238 47.0761 116.284 46.295 117.707 45.737C119.13 45.1511 120.985 44.8581 123.273 44.8581H129.257V48.6664H123.984C122.45 48.6664 121.389 48.9175 120.803 49.4197C120.245 49.9218 119.966 50.5496 119.966 51.3029C119.966 52.1398 120.287 52.8094 120.929 53.3116C121.599 53.7859 122.505 54.023 123.649 54.023C124.737 54.023 125.714 53.7719 126.579 53.2698C127.443 52.7397 128.071 51.9724 128.462 50.9681L129.466 53.9812C128.992 55.4319 128.127 56.534 126.872 57.2872C125.616 58.0405 123.998 58.4172 122.017 58.4172Z" fill="#01395D"/>
<path d="M87.1641 58.0823V28.7881H99.8443C102.467 28.7881 104.727 29.2205 106.624 30.0854C108.521 30.9224 109.986 32.136 111.018 33.7262C112.05 35.3165 112.566 37.2137 112.566 39.4177C112.566 41.5938 112.05 43.477 111.018 45.0673C109.986 46.6575 108.521 47.8851 106.624 48.75C104.727 49.587 102.467 50.0054 99.8443 50.0054H90.9305L93.9436 46.9505V58.0823H87.1641ZM93.9436 47.7038L90.9305 44.4814H99.4676C101.56 44.4814 103.122 44.035 104.155 43.1422C105.187 42.2495 105.703 41.0079 105.703 39.4177C105.703 37.7995 105.187 36.5441 104.155 35.6513C103.122 34.7585 101.56 34.3121 99.4676 34.3121H90.9305L93.9436 31.0898V47.7038Z" fill="#01395D"/>
<path d="M382.867 77.2111V68.2524H384.147V76.0977H388.998V77.2111H382.867Z" fill="#353533"/>
<path d="M370.73 77.2111L374.787 68.2524H376.054L380.124 77.2111H378.78L375.159 68.9691H375.671L372.049 77.2111H370.73ZM372.458 74.9715L372.804 73.9476H377.846L378.217 74.9715H372.458Z" fill="#353533"/>
<path d="M361.383 77.2111V68.2524H364.877C365.662 68.2524 366.331 68.3762 366.886 68.6236C367.441 68.871 367.867 69.2294 368.166 69.6986C368.464 70.1679 368.614 70.7267 368.614 71.3752C368.614 72.0236 368.464 72.5825 368.166 73.0517C367.867 73.5125 367.441 73.8666 366.886 74.114C366.331 74.3614 365.662 74.4851 364.877 74.4851H362.087L362.663 73.8964V77.2111H361.383ZM367.372 77.2111L365.094 73.9604H366.464L368.767 77.2111H367.372ZM362.663 74.0244L362.087 73.3973H364.838C365.657 73.3973 366.276 73.2224 366.694 72.8726C367.121 72.5142 367.334 72.0151 367.334 71.3752C367.334 70.7353 367.121 70.2404 366.694 69.8906C366.276 69.5408 365.657 69.3659 364.838 69.3659H362.087L362.663 68.726V74.0244Z" fill="#353533"/>
<path d="M350.285 77.2111V68.2524H354.304C355.336 68.2524 356.13 68.4615 356.684 68.8796C357.239 69.2891 357.516 69.8522 357.516 70.5689C357.516 71.0552 357.405 71.4648 357.183 71.7975C356.97 72.1303 356.68 72.3862 356.313 72.5654C355.946 72.7446 355.549 72.8342 355.123 72.8342L355.353 72.4502C355.865 72.4502 356.317 72.5398 356.71 72.719C357.102 72.8982 357.414 73.1627 357.644 73.5125C357.874 73.8538 357.99 74.2804 357.99 74.7923C357.99 75.5602 357.7 76.1574 357.119 76.584C356.548 77.0021 355.695 77.2111 354.56 77.2111H350.285ZM351.565 76.1745H354.509C355.217 76.1745 355.759 76.055 356.134 75.8161C356.509 75.5772 356.697 75.2018 356.697 74.6899C356.697 74.1695 356.509 73.7898 356.134 73.5509C355.759 73.312 355.217 73.1925 354.509 73.1925H351.45V72.1559H354.189C354.837 72.1559 355.34 72.0364 355.699 71.7975C356.057 71.5586 356.236 71.2003 356.236 70.7225C356.236 70.2447 356.057 69.8863 355.699 69.6474C355.34 69.4085 354.837 69.2891 354.189 69.2891H351.565V76.1745Z" fill="#353533"/>
<path d="M341.469 72.1175H346.077V73.2053H341.469V72.1175ZM341.585 76.0977H346.806V77.2111H340.305V68.2524H346.627V69.3659H341.585V76.0977Z" fill="#353533"/>
<path d="M333.165 77.2111V69.3659H330.094V68.2524H337.504V69.3659H334.432V77.2111H333.165Z" fill="#353533"/>
<path d="M320.805 77.2111V68.2524H324.299C325.084 68.2524 325.753 68.3762 326.308 68.6236C326.862 68.871 327.289 69.2294 327.588 69.6986C327.886 70.1679 328.036 70.7267 328.036 71.3752C328.036 72.0236 327.886 72.5825 327.588 73.0517C327.289 73.5125 326.862 73.8666 326.308 74.114C325.753 74.3614 325.084 74.4851 324.299 74.4851H321.509L322.085 73.8964V77.2111H320.805ZM326.794 77.2111L324.516 73.9604H325.886L328.189 77.2111H326.794ZM322.085 74.0244L321.509 73.3973H324.26C325.079 73.3973 325.698 73.2224 326.116 72.8726C326.543 72.5142 326.756 72.0151 326.756 71.3752C326.756 70.7353 326.543 70.2404 326.116 69.8906C325.698 69.5408 325.079 69.3659 324.26 69.3659H321.509L322.085 68.726V74.0244Z" fill="#353533"/>
<path d="M311.989 72.1175H316.596V73.2053H311.989V72.1175ZM312.104 76.0977H317.326V77.2111H310.824V68.2524H317.147V69.3659H312.104V76.0977Z" fill="#353533"/>
<path d="M303.079 77.2111L299.137 68.2524H300.519L304.141 76.52H303.347L306.995 68.2524H308.275L304.346 77.2111H303.079Z" fill="#353533"/>
<path d="M283.508 77.2111L287.565 68.2524H288.832L292.902 77.2111H291.558L287.936 68.9691H288.448L284.826 77.2111H283.508ZM285.236 74.9715L285.581 73.9476H290.624L290.995 74.9715H285.236Z" fill="#353533"/>
<path d="M273.07 77.2111V68.2524H274.12L280.045 75.6114H279.495V68.2524H280.775V77.2111H279.725L273.8 69.8522H274.35V77.2111H273.07Z" fill="#353533"/>
<path d="M265.253 77.3135C264.076 77.3135 263.15 76.9765 262.476 76.3025C261.802 75.6284 261.465 74.643 261.465 73.3461V68.2524H262.745V73.2949C262.745 74.2932 262.962 75.0227 263.397 75.4834C263.841 75.9441 264.464 76.1745 265.266 76.1745C266.076 76.1745 266.699 75.9441 267.134 75.4834C267.578 75.0227 267.8 74.2932 267.8 73.2949V68.2524H269.041V73.3461C269.041 74.643 268.704 75.6284 268.03 76.3025C267.365 76.9765 266.439 77.3135 265.253 77.3135Z" fill="#353533"/>
<path d="M252.684 77.2111V68.2524H253.963V76.0977H258.814V77.2111H252.684Z" fill="#353533"/>
<path d="M244.571 77.3136C243.888 77.3136 243.252 77.1984 242.664 76.9681C242.083 76.7377 241.58 76.4177 241.153 76.0082C240.727 75.5901 240.394 75.1038 240.155 74.5492C239.916 73.9946 239.797 73.3889 239.797 72.7319C239.797 72.0749 239.916 71.4691 240.155 70.9145C240.394 70.36 240.727 69.8779 241.153 69.4684C241.58 69.0503 242.083 68.7261 242.664 68.4957C243.244 68.2653 243.879 68.1501 244.571 68.1501C245.253 68.1501 245.88 68.2653 246.452 68.4957C247.032 68.7175 247.535 69.0375 247.962 69.4556C248.397 69.8651 248.73 70.3472 248.96 70.9017C249.199 71.4563 249.319 72.0664 249.319 72.7319C249.319 73.3974 249.199 74.0074 248.96 74.562C248.73 75.1166 248.397 75.6029 247.962 76.021C247.535 76.4305 247.032 76.7505 246.452 76.9809C245.88 77.2027 245.253 77.3136 244.571 77.3136ZM244.571 76.1746C245.065 76.1746 245.522 76.0893 245.94 75.9186C246.367 75.748 246.733 75.5091 247.041 75.2019C247.356 74.8862 247.599 74.5194 247.77 74.1013C247.949 73.6832 248.039 73.2267 248.039 72.7319C248.039 72.237 247.949 71.7806 247.77 71.3625C247.599 70.9444 247.356 70.5818 247.041 70.2746C246.733 69.959 246.367 69.7158 245.94 69.5451C245.522 69.3745 245.065 69.2892 244.571 69.2892C244.067 69.2892 243.602 69.3745 243.176 69.5451C242.758 69.7158 242.391 69.959 242.075 70.2746C241.759 70.5818 241.512 70.9444 241.333 71.3625C241.162 71.7806 241.077 72.237 241.077 72.7319C241.077 73.2267 241.162 73.6832 241.333 74.1013C241.512 74.5194 241.759 74.8862 242.075 75.2019C242.391 75.5091 242.758 75.748 243.176 75.9186C243.602 76.0893 244.067 76.1746 244.571 76.1746Z" fill="#353533"/>
<path d="M234.063 77.3136C233.381 77.3136 232.749 77.2027 232.169 76.9809C231.598 76.7505 231.099 76.4305 230.672 76.021C230.254 75.6029 229.925 75.1166 229.686 74.562C229.448 74.0074 229.328 73.3974 229.328 72.7319C229.328 72.0664 229.448 71.4563 229.686 70.9017C229.925 70.3472 230.258 69.8651 230.685 69.4556C231.111 69.0375 231.61 68.7175 232.182 68.4957C232.762 68.2653 233.394 68.1501 234.076 68.1501C234.767 68.1501 235.403 68.2696 235.983 68.5085C236.572 68.7389 237.071 69.0844 237.481 69.5451L236.649 70.3514C236.307 69.9931 235.923 69.7286 235.497 69.5579C235.07 69.3788 234.614 69.2892 234.127 69.2892C233.624 69.2892 233.155 69.3745 232.72 69.5451C232.293 69.7158 231.922 69.9547 231.606 70.2618C231.291 70.569 231.043 70.9359 230.864 71.3625C230.693 71.7806 230.608 72.237 230.608 72.7319C230.608 73.2267 230.693 73.6875 230.864 74.1141C231.043 74.5322 231.291 74.8948 231.606 75.2019C231.922 75.5091 232.293 75.748 232.72 75.9186C233.155 76.0893 233.624 76.1746 234.127 76.1746C234.614 76.1746 235.07 76.0893 235.497 75.9186C235.923 75.7394 236.307 75.4664 236.649 75.0995L237.481 75.9058C237.071 76.3666 236.572 76.7164 235.983 76.9553C235.403 77.1942 234.763 77.3136 234.063 77.3136Z" fill="#353533"/>
<path d="M211.586 77.2111V68.2524H212.635L216.654 75.0227H216.091L220.058 68.2524H221.108L221.121 77.2111H219.892L219.879 70.185H220.173L216.641 76.1233H216.052L212.495 70.185H212.815V77.2111H211.586Z" fill="#353533"/>
<path d="M202.766 72.1175H207.374V73.2053H202.766V72.1175ZM202.881 76.0977H208.103V77.2111H201.602V68.2524H207.924V69.3659H202.881V76.0977Z" fill="#353533"/>
<path d="M184.621 77.2111L188.678 68.2524H189.945L194.015 77.2111H192.671L189.049 68.9691H189.561L185.939 77.2111H184.621ZM186.349 74.9715L186.694 73.9476H191.737L192.108 74.9715H186.349Z" fill="#353533"/>
<path d="M179.282 77.2111V69.3659H176.211V68.2524H183.621V69.3659H180.55V77.2111H179.282Z" fill="#353533"/>
<path d="M170.887 77.3136C170.204 77.3136 169.552 77.2112 168.929 77.0065C168.306 76.7932 167.815 76.5201 167.457 76.1874L167.931 75.1891C168.272 75.4877 168.707 75.7352 169.236 75.9314C169.765 76.1277 170.315 76.2258 170.887 76.2258C171.407 76.2258 171.83 76.1661 172.154 76.0466C172.478 75.9272 172.717 75.765 172.871 75.5603C173.024 75.347 173.101 75.1081 173.101 74.8436C173.101 74.5364 172.999 74.289 172.794 74.1013C172.598 73.9136 172.337 73.7643 172.013 73.6533C171.697 73.5339 171.348 73.4315 170.964 73.3462C170.58 73.2609 170.192 73.1628 169.799 73.0518C169.415 72.9324 169.061 72.7831 168.737 72.6039C168.421 72.4247 168.165 72.1858 167.969 71.8872C167.773 71.58 167.675 71.1876 167.675 70.7098C167.675 70.249 167.794 69.8267 168.033 69.4428C168.28 69.0503 168.656 68.7389 169.159 68.5085C169.671 68.2696 170.32 68.1501 171.105 68.1501C171.625 68.1501 172.141 68.2184 172.653 68.3549C173.165 68.4914 173.609 68.6877 173.984 68.9436L173.562 69.9675C173.178 69.7115 172.773 69.5281 172.346 69.4172C171.919 69.2977 171.506 69.238 171.105 69.238C170.601 69.238 170.187 69.302 169.863 69.43C169.539 69.5579 169.3 69.7286 169.146 69.9419C169.001 70.1552 168.929 70.3941 168.929 70.6586C168.929 70.9743 169.027 71.226 169.223 71.4137C169.428 71.6014 169.688 71.7507 170.004 71.8616C170.328 71.9725 170.682 72.0749 171.066 72.1688C171.45 72.2541 171.834 72.3522 172.218 72.4631C172.61 72.574 172.964 72.7191 173.28 72.8983C173.604 73.0774 173.865 73.3163 174.061 73.615C174.257 73.9136 174.355 74.2975 174.355 74.7668C174.355 75.219 174.232 75.6413 173.984 76.0338C173.737 76.4177 173.353 76.7292 172.832 76.9681C172.32 77.1984 171.672 77.3136 170.887 77.3136Z" fill="#353533"/>
<path d="M162.906 77.2111V68.2524H164.186V77.2111H162.906Z" fill="#353533"/>
<path d="M153.898 77.2111V68.2524H155.178V76.0977H160.029V77.2111H153.898Z" fill="#353533"/>
<path d="M141.762 77.2111L145.819 68.2524H147.086L151.156 77.2111H149.812L146.19 68.9691H146.702L143.08 77.2111H141.762ZM143.489 74.9715L143.835 73.9476H148.877L149.249 74.9715H143.489Z" fill="#353533"/>
<path d="M137.746 77.2111V68.2524H139.026V77.2111H137.746Z" fill="#353533"/>
<path d="M131.095 77.3136C130.412 77.3136 129.781 77.2027 129.201 76.9809C128.629 76.7505 128.13 76.4305 127.703 76.021C127.285 75.6029 126.957 75.1166 126.718 74.562C126.479 74.0074 126.359 73.3974 126.359 72.7319C126.359 72.0664 126.479 71.4563 126.718 70.9017C126.957 70.3472 127.289 69.8651 127.716 69.4556C128.143 69.0375 128.642 68.7175 129.213 68.4957C129.794 68.2653 130.425 68.1501 131.107 68.1501C131.799 68.1501 132.434 68.2696 133.014 68.5085C133.603 68.7389 134.102 69.0844 134.512 69.5451L133.68 70.3514C133.339 69.9931 132.955 69.7286 132.528 69.5579C132.101 69.3788 131.645 69.2892 131.159 69.2892C130.655 69.2892 130.186 69.3745 129.751 69.5451C129.324 69.7158 128.953 69.9547 128.637 70.2618C128.322 70.569 128.074 70.9359 127.895 71.3625C127.725 71.7806 127.639 72.237 127.639 72.7319C127.639 73.2267 127.725 73.6875 127.895 74.1141C128.074 74.5322 128.322 74.8948 128.637 75.2019C128.953 75.5091 129.324 75.748 129.751 75.9186C130.186 76.0893 130.655 76.1746 131.159 76.1746C131.645 76.1746 132.101 76.0893 132.528 75.9186C132.955 75.7394 133.339 75.4664 133.68 75.0995L134.512 75.9058C134.102 76.3666 133.603 76.7164 133.014 76.9553C132.434 77.1942 131.794 77.3136 131.095 77.3136Z" fill="#353533"/>
<path d="M118.286 72.1175H122.893V73.2053H118.286V72.1175ZM118.401 76.0977H123.623V77.2111H117.121V68.2524H123.443V69.3659H118.401V76.0977Z" fill="#353533"/>
<path d="M106.602 77.2111V68.2524H110.095C110.88 68.2524 111.55 68.3762 112.105 68.6236C112.659 68.871 113.086 69.2294 113.385 69.6986C113.683 70.1679 113.833 70.7267 113.833 71.3752C113.833 72.0236 113.683 72.5825 113.385 73.0517C113.086 73.5125 112.659 73.8708 112.105 74.1268C111.55 74.3742 110.88 74.4979 110.095 74.4979H107.305L107.881 73.8964V77.2111H106.602ZM107.881 74.0244L107.305 73.3845H110.057C110.876 73.3845 111.495 73.2096 111.913 72.8598C112.339 72.51 112.553 72.0151 112.553 71.3752C112.553 70.7353 112.339 70.2404 111.913 69.8906C111.495 69.5408 110.876 69.3659 110.057 69.3659H107.305L107.881 68.726V74.0244Z" fill="#353533"/>
<path d="M99.8557 77.3136C99.1731 77.3136 98.5204 77.2112 97.8976 77.0065C97.2747 76.7932 96.7841 76.5201 96.4258 76.1874L96.8993 75.1891C97.2406 75.4877 97.6757 75.7352 98.2047 75.9314C98.7337 76.1277 99.284 76.2258 99.8557 76.2258C100.376 76.2258 100.798 76.1661 101.123 76.0466C101.447 75.9272 101.686 75.765 101.839 75.5603C101.993 75.347 102.07 75.1081 102.07 74.8436C102.07 74.5364 101.967 74.289 101.763 74.1013C101.566 73.9136 101.306 73.7643 100.982 73.6533C100.666 73.5339 100.316 73.4315 99.9325 73.3462C99.5485 73.2609 99.1603 73.1628 98.7678 73.0518C98.3839 72.9324 98.0298 72.7831 97.7056 72.6039C97.3899 72.4247 97.1339 72.1858 96.9377 71.8872C96.7415 71.58 96.6434 71.1876 96.6434 70.7098C96.6434 70.249 96.7628 69.8267 97.0017 69.4428C97.2491 69.0503 97.6245 68.7389 98.1279 68.5085C98.6399 68.2696 99.2883 68.1501 100.073 68.1501C100.594 68.1501 101.11 68.2184 101.622 68.3549C102.134 68.4914 102.577 68.6877 102.953 68.9436L102.53 69.9675C102.147 69.7115 101.741 69.5281 101.315 69.4172C100.888 69.2977 100.474 69.238 100.073 69.238C99.5699 69.238 99.1561 69.302 98.8318 69.43C98.5076 69.5579 98.2687 69.7286 98.1151 69.9419C97.9701 70.1552 97.8976 70.3941 97.8976 70.6586C97.8976 70.9743 97.9957 71.226 98.1919 71.4137C98.3967 71.6014 98.6569 71.7507 98.9726 71.8616C99.2968 71.9725 99.6509 72.0749 100.035 72.1688C100.419 72.2541 100.803 72.3522 101.187 72.4631C101.579 72.574 101.933 72.7191 102.249 72.8983C102.573 73.0774 102.833 73.3163 103.03 73.615C103.226 73.9136 103.324 74.2975 103.324 74.7668C103.324 75.219 103.2 75.6413 102.953 76.0338C102.705 76.4177 102.321 76.7292 101.801 76.9681C101.289 77.1984 100.641 77.3136 99.8557 77.3136Z" fill="#353533"/>
<path d="M88.4303 72.1175H93.0376V73.2053H88.4303V72.1175ZM88.5454 76.0977H93.7671V77.2111H87.2656V68.2524H93.5879V69.3659H88.5454V76.0977Z" fill="#353533"/>
</svg>
