<svg width="123" height="123" viewBox="0 0 123 123" fill="none" xmlns="http://www.w3.org/2000/svg">
<path d="M50.1776 17.3458C50.3454 17.5314 48.9993 20.5922 48.827 21.088C48.3505 22.4535 47.9669 23.8378 47.6043 25.2384C31.592 31.784 22.4426 48.4093 24.3612 65.4737C26.3813 83.4376 42.1715 99.1206 60.7987 98.7618C61.0535 98.7577 61.3151 98.5674 61.4705 98.753C61.4602 98.9263 61.6356 99.269 61.6356 99.3722V105.299L61.6336 105.295C61.5837 105.47 61.3044 105.557 61.1346 105.579C60.5959 105.653 58.8573 105.507 58.2088 105.462C28.567 103.385 10.0643 72.3048 20.2996 44.9093C25.2351 31.6963 36.4279 21.0447 50.1776 17.3458ZM63.0115 16.3624C63.1544 16.2119 64.0053 16.3163 64.2752 16.337C73.5806 17.0467 82.7417 21.6349 89.4198 27.9268L89.4178 27.9288C111.893 49.111 106.83 86.6253 79.4569 100.897C78.4664 101.412 76.3186 102.567 75.3426 102.84C75.1147 102.904 74.81 102.968 74.7996 102.638C74.7851 102.17 74.9901 101.427 75.0067 100.938C75.0667 99.207 74.9606 97.462 74.9461 95.7335C76.8543 94.7083 78.6447 93.6951 80.4285 92.4698C95.3801 82.2026 101.103 62.367 93.9237 45.6388C88.2774 32.4837 75.2903 22.8583 60.6248 23.046L60.6326 22.6622L63.0115 16.3624Z" fill="#01395D"/>
<path d="M67.3164 114.403C67.428 114.562 67.3786 114.78 67.2627 114.919C66.5002 115.488 65.824 116.189 65.0449 116.736C64.3754 117.206 62.0666 118.691 61.4072 118.928C61.2172 118.996 61.0536 119.013 60.8535 118.991C61.8231 116.825 62.9937 114.728 63.5488 112.395L67.3164 114.403ZM60.8535 118.993L60.8516 118.991H60.8535V118.993ZM71.2832 107.214C71.1194 107.75 69.6506 111.523 69.4248 111.601C69.2736 111.653 69.0809 111.616 68.9297 111.562C67.4192 110.706 65.8818 109.782 64.2305 109.254L64.668 104.122L71.2832 107.214ZM72.0527 99.8981H72.0547C72.5102 100.292 71.7377 103.742 71.8555 104.508C71.8182 104.729 71.6422 104.952 71.4082 104.86L64.7236 101.662L64.332 96.4059L72.0527 99.8981ZM71.8057 91.4772L72.1914 96.6286C72.0234 96.7893 70.6412 95.9537 70.3594 95.8258C68.2709 94.8666 66.1343 94.0105 64.0459 93.0534C63.9259 92.9379 63.8312 92.7993 63.7939 92.6344C63.6261 91.9186 63.5591 91.0045 63.3975 90.233C63.3102 89.8242 62.7935 88.2472 62.9229 88.0162L71.8057 91.4772ZM59.9531 78.5143C60.1272 78.3513 63.8723 79.9602 64.418 80.1627C66.2428 80.8391 68.095 81.4528 69.9219 82.1168L71.3887 87.6549C71.457 87.8879 71.2872 88.0736 71.043 87.9996C68.0885 86.6898 65.1583 85.3078 62.0898 84.2702L59.9531 78.5143ZM56.0791 68.8952C59.7216 70.6156 63.6524 71.6402 67.3633 73.2018L69.2695 79.1207L68.9053 79.275C65.6357 77.7485 62.1979 76.6164 58.833 75.3209L55.957 69.235L56.0791 68.8952ZM53.1719 60.1803C53.4226 60.1081 56.8936 61.5751 57.4883 61.7897C59.6431 62.5694 61.8622 63.2116 63.9922 64.0368L66.1367 69.3942C66.4823 70.5196 65.6087 69.7326 65.1797 69.5631C61.8417 68.2511 58.4532 67.0628 55.0654 65.8766L54.668 65.3795L53.0059 60.4323C52.9585 60.3292 53.0891 60.2051 53.1719 60.1803ZM50.7979 51.5621C50.9387 51.3703 51.011 51.4963 51.1602 51.5416C52.5152 51.9563 53.8934 52.5914 55.2422 53.07C56.9929 53.6888 58.7566 54.2729 60.5156 54.8649L62.3691 59.7272L62.4229 60.3961L52.2041 56.5377C51.7898 56.2448 51.9325 55.857 51.8145 55.4733C51.4622 54.3366 51.0589 53.1728 50.7979 52.0114C50.7626 51.8567 50.6756 51.7148 50.7979 51.5621ZM49.2852 41.8336C49.4426 41.813 49.586 41.8411 49.7373 41.8844C50.7878 42.1918 52.2111 42.949 53.2988 43.3698C54.8196 43.9577 56.3506 44.5152 57.8838 45.068C58.0951 45.2557 58.7211 48.5956 58.8848 49.2145C58.9802 49.5716 59.6862 51.3703 59.5039 51.5621L50.0977 47.8444L49.2852 41.8336ZM49.4355 33.3483L56.6953 36.6344C57.0703 38.3941 57.0329 40.2388 57.4805 42.0026C57.4673 42.1197 57.1034 42.0639 57.002 42.0309C56.4487 41.8616 55.4726 41.2845 54.8594 41.0328C52.9615 40.249 50.9974 39.5578 49.168 38.6481V33.5026H49.1699C49.1849 33.4487 49.3446 33.3009 49.4355 33.3483ZM50.4736 26.6354L56.7041 29.3561C57.0004 29.7666 56.7018 30.5839 56.6914 31.0377C56.679 31.5411 56.797 34.3596 56.5898 34.5143L49.4473 31.3161C49.384 31.1649 49.8286 29.3471 49.9033 28.9752C49.9841 28.5688 50.1732 26.6994 50.4736 26.6334V26.6354ZM57.6816 22.8483L57.6797 22.8502C57.7582 22.9245 57.7872 23.0828 57.7832 23.192C57.7563 23.7737 57.404 24.826 57.29 25.4821C57.2362 25.7874 57.1548 27.256 56.958 27.3014L50.875 24.7643L52.4912 20.4733L57.6816 22.8483ZM59.4775 15.8053C59.5748 15.8858 59.6163 16.1245 59.5957 16.2545C59.5253 16.7124 59.0301 17.7748 58.8643 18.3278C58.6488 19.0456 58.4976 19.9803 58.2656 20.6383C58.2263 20.7497 58.2423 20.8714 58.0869 20.9147L53.2305 18.6149L55.7559 14.1071L59.4775 15.8053ZM60.2354 8.27308C60.7115 8.23818 60.7053 8.52519 60.9746 8.66957C61.2791 8.83251 62.2961 9.15412 62.3213 9.46351C62.3358 9.65124 60.8937 12.3498 60.6865 12.8717C60.6099 13.0616 60.4382 13.8381 60.3945 13.8678C60.3054 13.9297 60.0692 13.8599 59.9531 13.8248L56.9219 12.3659C57.2707 11.8554 59.9722 8.29371 60.2354 8.27308ZM66.126 3.19496C66.2276 3.12064 66.4714 2.92463 66.5791 3.03187C66.6555 3.10829 66.5093 3.40663 66.4512 3.5182C66.0389 4.31438 64.6861 5.64709 64.0664 6.50941C63.8551 6.8023 63.1585 8.03546 62.9863 8.1266C62.8538 8.19669 61.4298 7.51535 61.3535 7.39711C61.279 7.27957 61.2666 7.16569 61.3535 7.05433C62.9386 5.77531 64.4725 4.3894 66.126 3.19496Z" fill="#353533"/>
</svg>
