<svg width="179" height="179" viewBox="0 0 179 179" fill="none" xmlns="http://www.w3.org/2000/svg">
<path d="M21.0205 125.175C21.1531 125.429 21.2153 125.702 21.2069 125.994C21.1986 126.287 21.1213 126.558 20.9751 126.808C20.8151 127.053 20.5903 127.251 20.3006 127.403C20.02 127.549 19.7379 127.616 19.4544 127.603C19.157 127.586 18.8858 127.497 18.6407 127.337C18.3955 127.177 18.2067 126.97 18.0741 126.717C17.932 126.445 17.8675 126.168 17.8806 125.884C17.8889 125.592 17.9731 125.323 18.1331 125.078C18.2793 124.828 18.4927 124.63 18.7733 124.483C19.063 124.332 19.3565 124.265 19.6538 124.282C19.9374 124.295 20.2017 124.382 20.4468 124.542C20.6872 124.693 20.8785 124.904 21.0205 125.175Z" fill="#353533" fill-opacity="0.76"/>
<path d="M37.1181 142.664L27.4167 145.45L26.5742 144.459L30.8715 135.32L31.7651 136.371L27.7302 144.683L27.3898 144.283L36.2416 141.634L37.1181 142.664ZM34.2183 142.803L33.1881 143.213L29.8351 139.271L30.3887 138.3L34.2183 142.803Z" fill="#353533" fill-opacity="0.76"/>
<path d="M47.2637 150.877L41.4766 158.022L40.6396 157.344L40.6675 147.647L41.1064 148.003L36.3527 153.872L35.332 153.045L41.1191 145.9L41.9561 146.578L41.9282 156.275L41.4893 155.92L46.243 150.051L47.2637 150.877Z" fill="#353533" fill-opacity="0.76"/>
<path d="M56.3171 155.875C57.3838 156.443 58.06 157.195 58.3456 158.13C58.6313 159.066 58.4614 160.121 57.836 161.296L55.3798 165.911L54.2203 165.294L56.6519 160.726C57.1332 159.821 57.2879 159.055 57.1158 158.428C56.9361 157.797 56.4829 157.288 55.7562 156.901C55.0219 156.51 54.3465 156.419 53.7301 156.626C53.106 156.83 52.5532 157.384 52.0719 158.288L49.6403 162.856L48.5156 162.258L50.9719 157.643C51.5972 156.468 52.3778 155.738 53.3135 155.452C54.2414 155.162 55.2426 155.303 56.3171 155.875Z" fill="#353533" fill-opacity="0.76"/>
<path d="M70.4129 161.539L67.5502 170.276L66.302 169.867L68.8089 162.216L64.0781 160.666L64.4339 159.58L70.4129 161.539Z" fill="#353533" fill-opacity="0.76"/>
<path d="M80.9313 163.157C81.625 163.255 82.2545 163.462 82.8199 163.781C83.3767 164.098 83.8426 164.495 84.2176 164.972C84.5914 165.458 84.8601 166 85.0237 166.598C85.1872 167.195 85.222 167.828 85.1281 168.496C85.0343 169.163 84.8263 169.762 84.5042 170.292C84.1822 170.821 83.7751 171.263 83.283 171.619C82.7897 171.983 82.2318 172.24 81.6092 172.391C80.9866 172.543 80.3242 172.569 79.6218 172.47C78.9281 172.373 78.3072 172.166 77.7591 171.85C77.2012 171.542 76.7353 171.145 76.3614 170.659C75.9777 170.18 75.7084 169.643 75.5536 169.046C75.39 168.448 75.3558 167.811 75.4509 167.135C75.546 166.459 75.7546 165.856 76.0766 165.326C76.39 164.796 76.7977 164.349 77.2997 163.986C77.7918 163.631 78.3491 163.378 78.9717 163.226C79.5843 163.083 80.2375 163.059 80.9313 163.157ZM80.7685 164.315C80.2655 164.244 79.7894 164.265 79.3401 164.379C78.8822 164.492 78.4752 164.682 78.1191 164.95C77.7532 165.226 77.4536 165.564 77.2204 165.965C76.9786 166.364 76.8223 166.815 76.7516 167.318C76.6809 167.821 76.7067 168.298 76.8291 168.748C76.9427 169.197 77.1381 169.601 77.415 169.958C77.6821 170.323 78.0202 170.622 78.4294 170.857C78.8299 171.09 79.2816 171.242 79.7845 171.312C80.2962 171.384 80.7809 171.364 81.2389 171.252C81.6882 171.138 82.0958 170.943 82.4617 170.668C82.8265 170.401 83.1298 170.067 83.3716 169.668C83.6048 169.268 83.7567 168.816 83.8274 168.313C83.8982 167.81 83.8767 167.334 83.763 166.885C83.6406 166.434 83.4416 166.026 83.1659 165.66C82.8889 165.303 82.5502 165.007 82.1497 164.774C81.7405 164.54 81.2801 164.387 80.7685 164.315Z" fill="#353533" fill-opacity="0.76"/>
<path d="M93.9808 163.562C94.6805 163.529 95.3332 163.612 95.9389 163.811C96.5362 164.019 97.0636 164.322 97.521 164.721C97.9702 165.129 98.3308 165.611 98.6029 166.168C98.8751 166.725 99.0275 167.345 99.0602 168.027C99.0929 168.709 99.0004 169.34 98.7827 169.921C98.5651 170.501 98.2476 171.011 97.8304 171.452C97.4136 171.902 96.9177 172.254 96.3425 172.51C95.7591 172.774 95.1175 172.923 94.4178 172.957C93.7093 172.991 93.0518 172.9 92.4453 172.683C91.8304 172.476 91.3018 172.146 90.8593 171.694L91.6725 170.827C92.04 171.177 92.4466 171.43 92.8923 171.584C93.3384 171.746 93.8108 171.816 94.3093 171.792C94.8254 171.767 95.3022 171.657 95.7399 171.46C96.1689 171.264 96.5376 171.001 96.8462 170.671C97.1547 170.34 97.3903 169.952 97.5531 169.506C97.7075 169.069 97.7725 168.597 97.7482 168.09C97.7239 167.582 97.6138 167.114 97.4179 166.685C97.2137 166.265 96.9422 165.906 96.6035 165.607C96.2648 165.307 95.8726 165.08 95.4269 164.927C94.9724 164.773 94.4872 164.709 93.9711 164.733C93.4725 164.757 93.0088 164.867 92.5798 165.063C92.1513 165.268 91.7711 165.566 91.4393 165.959L90.5469 165.173C90.9441 164.681 91.4386 164.298 92.0304 164.024C92.6134 163.751 93.2635 163.597 93.9808 163.562Z" fill="#353533" fill-opacity="0.76"/>
<path d="M120.759 157.068L123.839 165.731L122.824 166.092L116.611 160.926L117.155 160.733L115.646 168.644L114.631 169.004L111.539 160.345L112.727 159.923L115.155 166.713L114.87 166.814L116.245 159.857L116.814 159.655L122.296 164.175L121.987 164.285L119.571 157.49L120.759 157.068Z" fill="#353533" fill-opacity="0.76"/>
<path d="M133.34 155.955L129.281 158.38L128.708 157.422L132.768 154.997L133.34 155.955ZM131.144 152.509L126.543 155.258L125.957 154.277L131.685 150.854L136.401 158.747L130.831 162.075L130.245 161.094L134.687 158.44L131.144 152.509Z" fill="#353533" fill-opacity="0.76"/>
<path d="M147.877 135.877L151.656 145.236L150.759 146.177L141.223 142.854L142.175 141.856L150.861 145.004L150.499 145.384L146.943 136.856L147.877 135.877ZM148.316 138.747L148.832 139.728L145.26 143.473L144.237 143.024L148.316 138.747Z" fill="#353533" fill-opacity="0.76"/>
<path d="M152.283 129.409L158.936 133.944L160.712 131.339L161.656 131.982L157.373 138.267L156.428 137.623L158.204 135.018L151.551 130.483L152.283 129.409Z" fill="#353533" fill-opacity="0.76"/>
<path d="M157.337 119.706C157.639 119.074 158.022 118.514 158.487 118.028C158.96 117.545 159.429 117.212 159.896 117.027L160.611 117.906C160.184 118.091 159.762 118.384 159.347 118.788C158.931 119.191 158.597 119.657 158.345 120.187C158.115 120.669 157.983 121.087 157.951 121.44C157.918 121.793 157.963 122.086 158.084 122.318C158.214 122.555 158.401 122.732 158.646 122.849C158.931 122.984 159.205 122.999 159.47 122.892C159.73 122.793 159.984 122.618 160.23 122.367C160.48 122.127 160.729 121.848 160.978 121.53C161.227 121.213 161.489 120.896 161.765 120.582C162.046 120.279 162.34 120.017 162.65 119.796C162.955 119.582 163.29 119.451 163.653 119.401C164.024 119.355 164.431 119.438 164.874 119.649C165.3 119.852 165.639 120.15 165.889 120.541C166.143 120.943 166.266 121.429 166.257 121.997C166.252 122.577 166.076 123.23 165.729 123.957C165.499 124.439 165.208 124.887 164.855 125.301C164.502 125.715 164.124 126.039 163.721 126.274L162.96 125.43C163.366 125.188 163.715 124.893 164.007 124.547C164.306 124.205 164.544 123.848 164.721 123.476C164.944 123.01 165.067 122.598 165.092 122.242C165.117 121.885 165.064 121.588 164.935 121.351C164.801 121.123 164.612 120.95 164.367 120.833C164.074 120.694 163.798 120.673 163.537 120.772C163.273 120.879 163.02 121.054 162.777 121.297C162.531 121.549 162.28 121.831 162.023 122.146C161.775 122.464 161.514 122.776 161.242 123.082C160.966 123.397 160.675 123.661 160.369 123.874C160.06 124.095 159.724 124.231 159.36 124.281C158.997 124.33 158.598 124.252 158.163 124.044C157.744 123.844 157.408 123.543 157.154 123.141C156.907 122.742 156.789 122.248 156.797 121.661C156.81 121.085 156.99 120.433 157.337 119.706Z" fill="#353533" fill-opacity="0.76"/>
<path d="M161.178 109.912L169.926 112.742L169.522 113.991L160.773 111.161L161.178 109.912Z" fill="#353533" fill-opacity="0.76"/>
<path d="M163.443 98.5498L172.487 100.208L172.25 101.5L164.33 100.048L163.433 104.944L162.309 104.738L163.443 98.5498Z" fill="#353533" fill-opacity="0.76"/>
<path d="M163.856 83.77L172.999 88.0459L172.983 89.3462L163.738 93.4104L163.755 92.0313L172.259 88.4178L172.252 88.9432L163.84 85.1228L163.856 83.77ZM166.133 85.5712L167.179 85.9387L167.116 91.1135L166.061 91.4815L166.133 85.5712Z" fill="#353533" fill-opacity="0.76"/>
<path d="M163.031 77.3447L172.151 76.1765L172.318 77.4794L163.198 78.6476L163.031 77.3447Z" fill="#353533" fill-opacity="0.76"/>
<path d="M160.683 68.4947C160.497 67.8194 160.434 67.1645 160.495 66.5299C160.567 65.9015 160.747 65.3203 161.036 64.7864C161.335 64.2586 161.727 63.8009 162.21 63.4131C162.694 63.0253 163.265 62.7405 163.923 62.5588C164.581 62.3771 165.218 62.3287 165.832 62.4136C166.445 62.4985 167.013 62.6961 167.535 63.0063C168.065 63.3142 168.518 63.7207 168.893 64.2256C169.28 64.7367 169.566 65.3299 169.752 66.0052C169.941 66.6889 169.997 67.3504 169.919 67.9896C169.851 68.635 169.646 69.2231 169.302 69.7541L168.277 69.1513C168.538 68.7158 168.695 68.2637 168.748 67.795C168.808 67.3241 168.772 66.848 168.64 66.3669C168.502 65.8688 168.29 65.4279 168.002 65.044C167.717 64.6685 167.379 64.3666 166.989 64.1381C166.599 63.9097 166.168 63.7651 165.697 63.7043C165.237 63.6496 164.762 63.6899 164.273 63.825C163.783 63.9601 163.35 64.1703 162.975 64.4556C162.61 64.7471 162.319 65.0909 162.101 65.487C161.884 65.8832 161.749 66.3157 161.696 66.7843C161.646 67.2614 161.69 67.749 161.828 68.247C161.96 68.7281 162.169 69.1564 162.455 69.5319C162.749 69.905 163.123 70.2103 163.58 70.4478L163.009 71.4909C162.441 71.2116 161.959 70.8133 161.562 70.2961C161.167 69.7873 160.874 69.1869 160.683 68.4947Z" fill="#353533" fill-opacity="0.76"/>
<path d="M159.733 51.8931L161.769 56.1609L160.761 56.6417L158.725 52.3739L159.733 51.8931ZM156.097 53.7589L158.405 58.5957L157.373 59.0877L154.5 53.0655L162.798 49.1062L165.593 54.9625L164.561 55.4546L162.333 50.7838L156.097 53.7589Z" fill="#353533" fill-opacity="0.76"/>
<path d="M147.098 42.2294L154.596 36.9077L156.671 39.8319C157.137 40.4889 157.432 41.1229 157.554 41.7341C157.676 42.3452 157.63 42.9151 157.414 43.4438C157.199 43.9725 156.82 44.4294 156.277 44.8146C155.735 45.1998 155.178 45.4068 154.608 45.4356C154.045 45.4594 153.492 45.3152 152.948 45.0031C152.412 44.6859 151.91 44.1988 151.444 43.5419L149.787 41.2068L150.632 41.3315L147.858 43.3005L147.098 42.2294ZM150.525 41.4075L150.718 40.5454L152.353 42.8483C152.84 43.5338 153.353 43.9477 153.895 44.0898C154.441 44.239 154.982 44.1236 155.517 43.7435C156.053 43.3633 156.34 42.8909 156.38 42.326C156.424 41.7683 156.203 41.1467 155.716 40.4612L154.082 38.1582L154.96 38.2601L150.525 41.4075Z" fill="#353533" fill-opacity="0.76"/>
<path d="M140.647 35.594C140.152 35.0984 139.753 34.5502 139.449 33.9495C139.153 33.3425 138.995 32.7883 138.977 32.2867L140.045 31.9064C140.076 32.3708 140.212 32.8663 140.453 33.3927C140.694 33.9191 141.022 34.3899 141.437 34.8049C141.814 35.1828 142.164 35.4462 142.486 35.5949C142.808 35.7437 143.099 35.7996 143.359 35.7625C143.625 35.7193 143.854 35.6018 144.046 35.4099C144.269 35.1871 144.375 34.9333 144.362 34.6485C144.356 34.3699 144.276 34.0726 144.121 33.7567C143.979 33.4409 143.8 33.1126 143.583 32.772C143.367 32.4313 143.156 32.0783 142.952 31.7128C142.76 31.3474 142.612 30.982 142.507 30.6166C142.408 30.2575 142.396 29.8983 142.47 29.5392C142.551 29.1739 142.765 28.818 143.112 28.4714C143.446 28.1372 143.839 27.9176 144.291 27.8126C144.756 27.7076 145.254 27.7542 145.787 27.9527C146.332 28.1511 146.889 28.5352 147.458 29.1052C147.835 29.4831 148.16 29.9074 148.433 30.3781C148.705 30.8488 148.884 31.3133 148.971 31.7715L147.921 32.2075C147.828 31.7431 147.667 31.3158 147.438 30.9256C147.216 30.5292 146.959 30.1854 146.668 29.8942C146.303 29.5287 145.956 29.2747 145.628 29.1321C145.3 28.9896 145.003 28.9399 144.737 28.9831C144.477 29.0325 144.251 29.1531 144.058 29.345C143.829 29.574 143.718 29.8278 143.724 30.1064C143.736 30.3912 143.816 30.6885 143.965 30.9982C144.119 31.314 144.302 31.6454 144.512 31.9922C144.729 32.3329 144.936 32.6828 145.134 33.0421C145.338 33.4075 145.49 33.7698 145.589 34.129C145.694 34.4944 145.709 34.8566 145.635 35.2157C145.56 35.5748 145.352 35.9245 145.012 36.2649C144.683 36.5929 144.287 36.8094 143.823 36.9145C143.364 37.0133 142.86 36.9604 142.309 36.7558C141.77 36.5512 141.216 36.1639 140.647 35.594Z" fill="#353533" fill-opacity="0.76"/>
<path d="M132.766 22.5595L136.607 25.3173L135.956 26.2242L132.115 23.4665L132.766 22.5595ZM130.48 25.9468L134.833 29.0723L134.166 30.0006L128.746 26.109L134.108 18.6401L139.379 22.4244L138.713 23.3527L134.509 20.3345L130.48 25.9468Z" fill="#353533" fill-opacity="0.76"/>
<path d="M108.016 17.1191L114.994 9.8645L116.971 10.5787L117.713 20.6231L115.613 19.8643L115.209 11.0873L116 11.3729L110.066 17.8601L108.016 17.1191ZM110.612 15.9625L111.693 14.635L116.14 16.2419L116.134 17.9578L110.612 15.9625Z" fill="#353533" fill-opacity="0.76"/>
<path d="M99.7933 15.6898L101.089 8.34245L98.1914 7.8315L98.4925 6.12402L106.383 7.51545L106.082 9.22292L103.184 8.71198L101.889 16.0593L99.7933 15.6898Z" fill="#353533" fill-opacity="0.76"/>
<path d="M88.0321 15.2886C86.7273 15.2828 85.7088 14.9149 84.9764 14.1849C84.2441 13.4549 83.8809 12.4156 83.8868 11.0671L83.9094 5.91821L86.0373 5.92757L86.015 10.9976C86.0111 11.8733 86.1879 12.5046 86.5452 12.8914C86.9025 13.2783 87.4052 13.4732 88.0532 13.476C88.7012 13.4789 89.2055 13.2884 89.5662 12.9047C89.9269 12.521 90.1092 11.8913 90.1131 11.0157L90.1354 5.9456L92.237 5.95485L92.2143 11.1037C92.2084 12.4522 91.836 13.4883 91.0973 14.2118C90.3585 14.9354 89.3368 15.2943 88.0321 15.2886Z" fill="#353533" fill-opacity="0.76"/>
<path d="M72.5041 11.324L76.8661 10.5709L77.1477 12.2018L72.7857 12.9549L72.5041 11.324ZM73.3031 15.0249L78.2346 14.1734L78.5251 15.8561L71.5097 17.0674L69.9453 8.00696L76.7924 6.82471L77.083 8.50736L72.3198 9.3298L73.3031 15.0249Z" fill="#353533" fill-opacity="0.76"/>
<path d="M58.9727 21.4022L55.8438 12.7565L59.5861 11.4021C60.3601 11.122 61.0733 11.0082 61.7255 11.0608C62.3749 11.1052 62.9368 11.3069 63.4113 11.666C63.8858 12.0251 64.2408 12.5299 64.4762 13.1804C64.7086 13.8226 64.7575 14.4335 64.6227 15.0131C64.4879 15.5927 64.1867 16.1115 63.7192 16.5694C63.2487 17.019 62.6264 17.3839 61.8524 17.664L59.2216 18.6162L59.7846 17.3927L60.9736 20.6781L58.9727 21.4022ZM59.8651 17.615L58.6316 16.9858L61.1512 16.0739C61.7688 15.8504 62.1822 15.5518 62.3915 15.1781C62.6008 14.8043 62.6205 14.3828 62.4506 13.9134C62.2778 13.4359 61.9914 13.1205 61.5913 12.9672C61.1913 12.814 60.6825 12.8491 60.065 13.0726L57.5454 13.9845L58.0905 12.7117L59.8651 17.615Z" fill="#353533" fill-opacity="0.76"/>
<path d="M45.8978 28.827L44.7891 18.8218L46.6027 17.76L54.796 23.6176L52.869 24.7458L45.866 19.4394L46.5915 19.0147L47.7795 27.7254L45.8978 28.827ZM46.6707 26.0915L46.3418 24.4119L50.4226 22.0228L51.7376 23.1251L46.6707 26.0915Z" fill="#353533" fill-opacity="0.76"/>
<path d="M36.6431 36.8399L30.6367 29.8785L33.65 27.2785C34.2733 26.7408 34.899 26.3802 35.5271 26.1968C36.1496 26.0067 36.7465 25.9948 37.3179 26.161C37.8892 26.3273 38.4009 26.6723 38.8528 27.1961C39.299 27.7132 39.5624 28.2666 39.6432 28.8561C39.7182 29.439 39.6161 30.0245 39.3369 30.6123C39.0577 31.2002 38.6065 31.763 37.9832 32.3007L35.865 34.1284L35.9718 32.8045L38.2542 35.4499L36.6431 36.8399ZM41.0686 33.0216L37.1488 31.9972L38.8693 30.5127L42.809 31.52L41.0686 33.0216ZM36.1262 32.9835L34.7581 32.8455L36.7868 31.0951C37.2841 30.666 37.5638 30.2396 37.6261 29.8158C37.6826 29.3854 37.5479 28.9812 37.2218 28.6033C36.89 28.2187 36.51 28.0262 36.0816 28.0257C35.6532 28.0252 35.1904 28.2395 34.6932 28.6685L32.6644 30.4189L32.7197 29.0354L36.1262 32.9835Z" fill="#353533" fill-opacity="0.76"/>
<path d="M25.5163 41.4733L28.3192 38.0473L29.6002 39.0953L26.7972 42.5213L25.5163 41.4733ZM28.544 43.7467L31.7129 39.8734L33.0345 40.9546L28.5265 46.4647L21.4102 40.6425L25.81 35.2646L27.1316 36.3459L24.0708 40.087L28.544 43.7467Z" fill="#353533" fill-opacity="0.76"/>
<path d="M23.4007 55.0465L16.9287 51.335L15.465 53.8873L13.9609 53.0247L17.9469 46.0742L19.451 46.9368L17.9873 49.4891L24.4592 53.2006L23.4007 55.0465Z" fill="#353533" fill-opacity="0.76"/>
<path d="M18.9854 66.35C18.7424 67.035 18.4054 67.6309 17.9747 68.1377C17.5468 68.6363 17.0546 69.0284 16.4979 69.314C15.9442 69.5914 15.3525 69.7531 14.7229 69.7991C14.0963 69.8368 13.4611 69.7415 12.8174 69.5131C12.1737 69.2846 11.6206 68.9582 11.1579 68.5338C10.6982 68.1012 10.3423 67.5986 10.0902 67.026C9.83816 66.4533 9.70323 65.8386 9.68544 65.1819C9.66764 64.5251 9.77882 63.8584 10.019 63.1817C10.2621 62.4968 10.5961 61.9091 11.021 61.4188C11.4488 60.9202 11.9396 60.5322 12.4933 60.2549C13.05 59.9693 13.6431 59.8035 14.2727 59.7574C14.894 59.7085 15.5307 59.7997 16.1826 60.0311C16.8263 60.2595 17.3821 60.5915 17.8501 61.0271C18.3098 61.4597 18.6657 61.9623 18.9178 62.535C19.1645 63.0964 19.2968 63.7055 19.3146 64.3623C19.3353 65.0108 19.2256 65.6734 18.9854 66.35ZM17.2728 65.7562C17.4105 65.3683 17.4704 64.99 17.4526 64.6213C17.4377 64.2444 17.3504 63.8882 17.1907 63.5527C17.031 63.2173 16.8054 62.9235 16.5139 62.6714C16.2253 62.411 15.8748 62.2076 15.4621 62.0612C15.0495 61.9147 14.6491 61.8516 14.261 61.8718C13.8758 61.8838 13.5155 61.9696 13.18 62.1293C12.8475 62.2808 12.5567 62.4981 12.3075 62.7814C12.0583 63.0646 11.8649 63.4001 11.7272 63.788C11.5896 64.1759 11.5282 64.5583 11.5431 64.9352C11.5609 65.3039 11.6496 65.656 11.8094 65.9914C11.9691 66.3269 12.1932 66.6248 12.4817 66.8851C12.7732 67.1373 13.1253 67.3365 13.5379 67.483C13.9423 67.6265 14.3412 67.6937 14.7346 67.6847C15.1228 67.6645 15.4831 67.5787 15.8156 67.4272C16.151 67.2675 16.4434 67.046 16.6925 66.7628C16.9417 66.4796 17.1352 66.144 17.2728 65.7562Z" fill="#353533" fill-opacity="0.76"/>
<path d="M15.6805 78.4362L6.64453 76.736L7.03801 74.6448L16.074 76.345L15.6805 78.4362Z" fill="#353533" fill-opacity="0.76"/>
<path d="M15.214 87.5643C15.1755 88.2989 15.0425 88.9978 14.8148 89.661C14.5784 90.3238 14.292 90.8525 13.9557 91.247L12.3932 90.4417C12.6937 90.0629 12.9497 89.6115 13.1612 89.0877C13.3645 88.5547 13.4806 88.0128 13.5095 87.4619C13.5315 87.0421 13.5098 86.7034 13.4443 86.4457C13.3706 86.1787 13.2627 85.9802 13.1204 85.85C12.9782 85.7197 12.8109 85.6496 12.6185 85.6395C12.3736 85.6267 12.1762 85.7128 12.0262 85.8979C11.8675 86.0825 11.7361 86.3299 11.6322 86.6401C11.5195 86.9499 11.4137 87.2951 11.3149 87.6757C11.2077 88.0472 11.0829 88.422 10.9403 88.8004C10.7982 89.17 10.6227 89.5072 10.4138 89.8119C10.2049 90.1166 9.9378 90.3613 9.61246 90.546C9.28757 90.7218 8.88027 90.797 8.39057 90.7713C7.86589 90.7438 7.39663 90.5789 6.9828 90.2767C6.56069 89.9652 6.23772 89.5186 6.0139 88.9369C5.7818 88.346 5.68842 87.6177 5.73378 86.752C5.76401 86.1748 5.86375 85.6101 6.03298 85.0578C6.19347 84.505 6.42048 84.0214 6.71402 83.6071L8.29305 84.3475C8.02575 84.7632 7.82404 85.1823 7.68791 85.6048C7.54304 86.0269 7.45983 86.4434 7.4383 86.8544C7.41677 87.2654 7.44723 87.6046 7.52968 87.872C7.61213 88.1394 7.72907 88.334 7.88052 88.456C8.02323 88.5774 8.19514 88.6434 8.39627 88.654C8.63238 88.6663 8.8298 88.5802 8.98854 88.3956C9.13853 88.2106 9.2655 87.9629 9.36944 87.6527C9.47338 87.3425 9.57892 87.0017 9.68606 86.6302C9.79367 86.25 9.91416 85.8749 10.0475 85.5048C10.1814 85.126 10.3527 84.7843 10.5616 84.4795C10.7705 84.1748 11.0374 83.9345 11.3623 83.7586C11.6876 83.574 12.0908 83.4942 12.5717 83.5194C13.0876 83.5465 13.5523 83.7155 13.9657 84.0265C14.379 84.3375 14.7018 84.7885 14.9339 85.3794C15.1665 85.9615 15.2598 86.6898 15.214 87.5643Z" fill="#353533" fill-opacity="0.76"/>
<path d="M15.4257 98.6615L6.26308 99.4269L6.08594 97.3064L15.2485 96.541L15.4257 98.6615Z" fill="#353533" fill-opacity="0.76"/>
<path d="M12.5546 109.75L11.5992 105.441L13.2662 105.072L14.2217 109.38L12.5546 109.75ZM17.4576 108.501L17.9182 110.579L8.94173 112.569L7.4375 105.785L9.10456 105.416L10.1481 110.122L17.4576 108.501Z" fill="#353533" fill-opacity="0.76"/>
<path d="M78.1776 45.3458C78.3454 45.5314 76.9995 48.5918 76.827 49.088C76.3505 50.4535 75.9669 51.8378 75.6044 53.2384C59.5921 59.784 50.4418 76.4093 52.3602 93.4737C54.3804 111.438 70.1714 127.121 88.7987 126.762C89.0534 126.758 89.3142 126.568 89.4696 126.753C89.4592 126.926 89.6356 127.269 89.6356 127.372V133.299L89.6337 133.295C89.5838 133.47 89.3045 133.556 89.1346 133.579C88.596 133.653 86.8576 133.507 86.2089 133.462C56.5669 131.385 38.0642 100.305 48.2997 72.9093C53.2352 59.6962 64.4278 49.0446 78.1776 45.3458ZM91.0106 44.3624C91.1535 44.2119 92.0045 44.3163 92.2743 44.337C101.58 45.0467 110.741 49.6349 117.419 55.9269L117.416 55.9288C139.891 77.1109 134.829 114.625 107.456 128.897C106.466 129.412 104.318 130.567 103.342 130.84C103.114 130.904 102.809 130.968 102.799 130.638C102.784 130.17 102.989 129.427 103.006 128.938C103.066 127.207 102.96 125.462 102.945 123.733C104.853 122.708 106.644 121.695 108.428 120.47C123.379 110.203 129.102 90.367 121.923 73.6388C116.276 60.4837 103.289 50.8583 88.6239 51.046L88.6317 50.6622L91.0106 44.3624Z" fill="#01395D"/>
<path d="M95.3154 142.403C95.4269 142.562 95.3776 142.78 95.2617 142.919C94.4992 143.488 93.823 144.189 93.0439 144.736C92.3743 145.207 90.0641 146.691 89.4053 146.928C89.2155 146.996 89.0524 147.013 88.8525 146.991C89.8221 144.825 90.9927 142.728 91.5479 140.395L95.3154 142.403ZM88.8525 146.993L88.8506 146.991H88.8525V146.993ZM99.2842 135.214C99.1204 135.75 97.6519 139.522 97.4258 139.601C97.2746 139.653 97.0819 139.616 96.9307 139.562C95.4202 138.706 93.8828 137.782 92.2314 137.254L92.668 132.121L99.2842 135.214ZM100.051 127.898H100.053C100.508 128.292 99.7357 131.742 99.8535 132.508C99.8162 132.729 99.6404 132.952 99.4062 132.859L92.7217 129.662L92.3301 124.406L100.051 127.898ZM99.8076 119.477L100.192 124.629C100.023 124.788 98.6433 123.954 98.3613 123.826C96.2728 122.867 94.1364 122.011 92.0479 121.053C91.9277 120.938 91.8322 120.799 91.7949 120.634C91.6271 119.919 91.561 119.005 91.3994 118.233C91.3122 117.824 90.7943 116.244 90.9248 116.015L99.8076 119.477ZM87.9551 106.514C88.1294 106.351 91.875 107.961 92.4199 108.163C94.2445 108.839 96.0962 109.453 97.9229 110.117L99.3906 115.655C99.4589 115.888 99.2884 116.074 99.0439 116C96.0893 114.69 93.1594 113.308 90.0908 112.27L87.9551 106.514ZM84.0801 96.8942C87.7226 98.6146 91.6534 99.6402 95.3643 101.202L97.2705 107.121L96.9062 107.275C93.6366 105.748 90.1989 104.616 86.834 103.321L83.958 97.235L84.0801 96.8942ZM81.1709 88.1803C81.4216 88.1081 84.8926 89.5751 85.4873 89.7897C87.6421 90.5694 89.8612 91.2116 91.9912 92.0368L94.1357 97.3942C94.4814 98.5197 93.6077 97.7326 93.1787 97.5631C89.8407 96.2511 86.4522 95.0628 83.0645 93.8766L82.667 93.3795L81.0049 88.4323C80.9576 88.3292 81.0881 88.2051 81.1709 88.1803ZM78.7959 79.5621C78.9367 79.3704 79.0092 79.4962 79.1582 79.5416C80.5132 79.9563 81.8914 80.5914 83.2402 81.07C84.9911 81.6888 86.7545 82.2728 88.5137 82.8649L90.3682 87.7272L90.4209 88.3961L80.2031 84.5377C79.7888 84.2448 79.9315 83.8569 79.8135 83.4733C79.4612 82.3366 79.057 81.1728 78.7959 80.0114C78.7607 79.8568 78.674 79.7146 78.7959 79.5621ZM77.2852 69.8336C77.4426 69.813 77.586 69.8411 77.7373 69.8844C78.7878 70.1918 80.2111 70.949 81.2988 71.3698C82.8196 71.9577 84.3506 72.5152 85.8838 73.068C86.0951 73.2557 86.7211 76.5956 86.8848 77.2145C86.9802 77.5716 87.6862 79.3703 87.5039 79.5621L78.0977 75.8444L77.2852 69.8336ZM77.4355 61.3483L84.6963 64.6344C85.0713 66.3941 85.0339 68.2388 85.4814 70.0026C85.4682 70.1195 85.1047 70.0639 85.0029 70.0309C84.4498 69.8618 83.4737 69.2846 82.8604 69.0328C80.9624 68.2489 78.9976 67.5578 77.168 66.6481V61.5026H77.1699C77.1846 61.4488 77.3445 61.3009 77.4355 61.3483ZM78.4727 54.6354L84.7031 57.3561C84.9994 57.7666 84.7018 58.5839 84.6914 59.0377C84.679 59.5411 84.797 62.3594 84.5898 62.5143L77.4473 59.3161C77.3835 59.1663 77.8286 57.3471 77.9033 56.9752C77.9841 56.5689 78.1723 54.7003 78.4727 54.6334V54.6354ZM85.6816 50.8483L85.6787 50.8502C85.7573 50.9244 85.7872 51.0827 85.7832 51.192C85.7563 51.7737 85.4041 52.826 85.29 53.4821C85.2362 53.7874 85.1548 55.2558 84.958 55.3014L78.875 52.7643L80.4912 48.4733L85.6816 50.8483ZM87.4756 43.8053C87.5729 43.8857 87.6143 44.1245 87.5938 44.2545C87.5233 44.7124 87.0282 45.7748 86.8623 46.3278C86.6468 47.0456 86.4957 47.9803 86.2637 48.6383C86.2243 48.7496 86.2408 48.8712 86.0859 48.9147L81.2285 46.6149L83.7549 42.1071L87.4756 43.8053ZM88.2344 36.2731C88.7106 36.2381 88.7044 36.5252 88.9736 36.6696C89.2782 36.8325 90.2952 37.1541 90.3203 37.4635C90.3348 37.6512 88.8927 40.3498 88.6855 40.8717C88.6088 41.0619 88.437 41.8389 88.3936 41.8678C88.3044 41.9297 88.0682 41.8599 87.9521 41.8248L84.9209 40.3659C85.2694 39.8558 87.9713 36.2937 88.2344 36.2731ZM94.126 31.195C94.2276 31.1206 94.4714 30.9246 94.5791 31.0319C94.6555 31.1083 94.5093 31.4066 94.4512 31.5182C94.0389 32.3144 92.6861 33.6471 92.0664 34.5094C91.8551 34.8023 91.1585 36.0355 90.9863 36.1266C90.8538 36.1967 89.4298 35.5153 89.3535 35.3971C89.279 35.2796 89.2666 35.1657 89.3535 35.0543C90.9386 33.7753 92.4725 32.3894 94.126 31.195Z" fill="#353533"/>
</svg>
